<svg width="26" height="28" viewBox="0 0 26 28" fill="none" xmlns="http://www.w3.org/2000/svg">
<path d="M3.0278 28C2.32742 28 1.72785 27.7506 1.22909 27.2519C0.730335 26.7531 0.480957 26.1535 0.480957 25.4532C0.480957 24.7528 0.730335 24.1532 1.22909 23.6544C1.72785 23.1557 2.32742 22.9063 3.0278 22.9063H23.4025C24.1029 22.9063 24.7025 23.1557 25.2013 23.6544C25.7 24.1532 25.9494 24.7528 25.9494 25.4532C25.9494 26.1535 25.7 26.7531 25.2013 27.2519C24.7025 27.7506 24.1029 28 23.4025 28H3.0278ZM4.30122 20.3595C3.94042 20.3595 3.63798 20.2374 3.39391 19.9934C3.14984 19.7493 3.0278 19.4468 3.0278 19.086V16.1253C3.0278 15.9556 3.05964 15.7911 3.12331 15.6319C3.18698 15.4727 3.28249 15.3295 3.40983 15.2021L14.5523 4.05967L19.3276 8.835L8.18516 19.9774C8.05782 20.1048 7.91456 20.2003 7.75538 20.264C7.5962 20.3276 7.43172 20.3595 7.26193 20.3595H4.30122ZM5.57464 17.8126H6.72072L15.762 8.835L14.5523 7.62525L5.57464 16.6665V17.8126ZM20.7602 7.43424L15.9849 2.6589L18.277 0.366746C18.5105 0.112061 18.8076 -0.00997514 19.1684 0.000636711C19.5292 0.0112486 19.8264 0.133285 20.0598 0.366746L23.0524 3.35929C23.2858 3.59275 23.4025 3.88457 23.4025 4.23476C23.4025 4.58496 23.2858 4.88739 23.0524 5.14208L20.7602 7.43424Z" fill="white"/>
</svg>
